<svg fill="none" height="22" viewBox="0 0 115 22" width="115" xmlns="http://www.w3.org/2000/svg" xmlns:xlink="http://www.w3.org/1999/xlink"><clipPath id="a"><path d="m0 0h115v22h-115z"/></clipPath><g clip-path="url(#a)"><g fill="#161e26"><path d="m25.197 10.443c-.2417-.75108-.6409-1.44128-1.1707-2.02399-.4843-.52006-1.077-.92608-1.7356-1.189-.668-.26399-1.3799-.39803-2.0977-.395h-.1163c-.8566.00449-1.702.19483-2.4787.558-.8575.39102-1.6158.97223-2.218 1.7h-.0587l-.175-1.917h-5.23077v3.89399h1.70477v10.544h4.1635v-7.329c.0008-.4331.0696-.8634.2039-1.275.1297-.4133.3271-.8019.5839-1.15.249-.3383.5675-.6186.9339-.822.3856-.2065.8175-.3098 1.2543-.3.3528-.0035.7034.0561 1.0354.176.3242.1201.6146.3174.8464.575.2585.299.4532.6482.5719 1.026.1592.5075.2331 1.0381.2188 1.57v7.538h4.1785v-8.278c.0226-.9837-.1173-1.9643-.4138-2.902z"/><path d="m41.4884 21.6175h-3.5309l-.1731-1.906h-.0586c-.6031.7269-1.3612 1.3079-2.2181 1.7-.7767.363-1.6221.5534-2.4786.558h-.1203c-.724.0054-1.4421-.1305-2.1146-.4-.6511-.2662-1.2366-.6719-1.7158-1.189-.528-.5829-.9258-1.2726-1.1666-2.023-.2987-.9366-.4412-1.9165-.4218-2.9v-8.27195h4.1645v7.53995c-.0506.466-.0068.9375.129 1.3859.1357.4485.3605.8646.6608 1.2231.5119.4849 1.1926.7484 1.8957.734.4375.0068.8694-.0996 1.2543-.309.3664-.2029.685-.4829.9339-.821.2547-.3493.4519-.7376.5839-1.15.1344-.4122.2032-.8431.2039-1.277v-7.32595h4.1724z"/><path d="m69.4073 18.538c.5238.0358 1.0483-.0605 1.5258-.28.1358-.0652.2511-.1668.3333-.2937.0821-.1268.1278-.274.1321-.4253-.0126-.1832-.0732-.3597-.1758-.5117-.1026-.1519-.2433-.2738-.408-.3533-.6687-.341-1.3867-.5739-2.1275-.69-1.3549-.2141-2.6239-.8026-3.6652-1.7-.4166-.3933-.7451-.8713-.9638-1.4022-.2186-.5309-.3224-1.1025-.3044-1.6768-.0032-.5884.1271-1.1698.381-1.69996.263-.54082.6413-1.01676 1.108-1.394.5374-.42656 1.1518-.74472 1.8092-.937.7952-.23535 1.621-.34896 2.4498-.337 2.097-.00932 4.1595.53702 5.9797 1.584l-2.1882 3.10996c-.5375-.3688-1.1211-.6647-1.7356-.88-.6406-.2334-1.3168-.3528-1.9982-.353-.4235-.0264-.8464.0595-1.2264.249-.1216.0622-.2239.1567-.2958.2732-.0719.1166-.1106.2507-.112.3878.009.1501.0569.2953.1389.421.082.1258.1953.2278.3286.296.5678.2996 1.1769.5123 1.8072.631.8771.191 1.7325.4711 2.5532.836.609.2699 1.1706.637 1.663 1.087.3994.3703.7061.8301.8952 1.342.1789.5182.2674 1.0636.2616 1.612.0112.6363-.1301 1.266-.412 1.8358-.2818.5699-.6959 1.0632-1.2073 1.4382-1.3215.9121-2.9074 1.3558-4.5076 1.261-.5612-.0012-1.1215-.0453-1.676-.132-.5629-.0866-1.1187-.2146-1.663-.383-.5197-.1603-1.0292-.3524-1.5257-.575-.4407-.1942-.8567-.4406-1.2394-.734l2.1882-3.11c.5205.4523 1.1121.8145 1.7506 1.072.6733.2844 1.3962.4312 2.1265.432z"/><path d="m83.4644 6.80665c1.0283-.02105 2.053.12724 3.0336.439.7938.25693 1.5212.6876 2.1296 1.261.5646.54802.9944 1.22082 1.2552 1.96505.283.8298.421 1.7027.4078 2.58v8.563h-3.5329l-.1164-1.407h-.0587c-.4757.5738-1.0801 1.0258-1.7635 1.319-.7906.3283-1.6403.4883-2.4955.47-.8205.0167-1.6368-.1224-2.406-.41-.6438-.2414-1.2347-.6066-1.7396-1.075-.4556-.4297-.8149-.952-1.0543-1.532-.2322-.5714-.3515-1.1828-.3511-1.8-.0414-.6922.0905-1.3838.3836-2.0115s.7382-1.1715 1.2943-1.5815c1.3863-.8865 3.0147-1.3122 4.6549-1.217.5241 0 1.0393.0209 1.5446.0589.5053.0381.9947.1001 1.4591.1761v-.3701c.0114-.2723-.0376-.5437-.1434-.7947-.1058-.2509-.2657-.4751-.4682-.6562-.5749-.4144-1.2789-.6071-1.9833-.543-.7362.0049-1.468.1133-2.1743.322-.812.2451-1.5831.6108-2.2876 1.085l-1.8302-3.28605c.4271-.21466.8936-.41967 1.3995-.615.5144-.19815 1.0402-.36512 1.5745-.5.5438-.13585 1.0942-.24333 1.6491-.322.5357-.0769 1.0761-.11599 1.6172-.117zm-.4078 12.07805c.3893.0001.7758-.0647 1.1438-.1921.3631-.1242.696-.3242.9768-.5869.2918-.2783.5251-.6126.6863-.983.1797-.424.2685-.8813.2606-1.342v-.0881c-.3495-.0766-.7384-.1406-1.1667-.1919-.4433-.0491-.8889-.0734-1.3348-.073-1.7718 0-2.657.575-2.6557 1.725-.0086.2362.0357.4714.1297.6881s.2353.4094.4134.5639c.4391.3465.9894.519 1.5466.485z"/><path d="m92.5315 21.6175h4.1725v-14.43195h-4.1725z"/><path d="m113.493 17.743v-17.389973h-4.172v8.006003h-.063c-1.134-1.0254-2.617-1.57442-4.142-1.534-.902-.01305-1.797.17017-2.623.53711s-1.563.90894-2.161 1.58889c-.62.70138-1.0963 1.51907-1.4013 2.40597-.3386.9753-.5069 2.0021-.4973 3.035-.0116 1.0393.1567 2.0727.4973 3.054.3055.885.7818 1.7006 1.4013 2.4.911 1.0023 2.109 1.6949 3.429 1.9816s2.696.1533 3.937-.3816c.783-.3485 1.484-.8597 2.056-1.5h.06l.145 1.672h5.038v-3.875zm-5.091-.746c-.316.3257-.696.5814-1.115.7507-.42.1693-.87.2484-1.322.2323-.451.0179-.9-.0605-1.318-.23-.419-.1694-.797-.426-1.109-.753-.319-.3498-.566-.7597-.726-1.206-.161-.4462-.232-.92-.209-1.394-.043-.9596.293-1.8973.935-2.609.309-.3303.685-.5903 1.102-.7628.418-.1724.867-.2533 1.318-.2372.453-.0151.904.0662 1.324.2385s.799.4318 1.113.7615c.323.3496.573.7603.737 1.2082s.237.9241.216 1.4008c.023.4749-.049.9494-.212 1.3959-.162.4465-.412.8558-.733 1.2041z"/></g><path d="m96.9928 2.87457c.0052.29765-.0503.59321-.1632.86841s-.2808.52419-.4932.73159c-.2248.221-.4922.39346-.7857.50679-.2935.11332-.6069.16512-.9211.15221-.3153.01124-.6296-.0413-.9243-.1545-.2948-.11321-.5639-.28476-.7914-.5045-.2176-.20453-.3902-.45251-.5068-.72804-.1167-.27554-.1748-.57254-.1706-.87196-.0035-.30055.0542-.59865.1697-.8759s.2862-.52777.5017-.7361c.2253-.22384.4937-.39915.7887-.515207s.6104-.170428.927-.159791c.3155-.01196.6299.041835.9237.158001.2937.116167.5604.292187.7831.516997.2126.21013.3808.46118.4946.73816.1138.27697.1709.57417.1678.87384z" fill="#e03131"/><path d="m5.58484.661011h5.17206l-5.58483 12.749989h-5.17207z" fill="#e03131"/><path d="m63.5577 7.18497h-4.3286v-1.319c-.0243-.48956.0706-.97768.2765-1.422.1064-.17556.2602-.3171.4435-.40811s.3886-.12773.5919-.10589c.3492.0024.6968.04672 1.0354.132.3601.088.6956.18067 1.0066.278l.7629-3.959c-.5073-.1-1.0603-.192-1.663-.265-.5524-.0735255-1.1088-.11226763-1.666-.11600015-.6937-.05100875-1.3898.05868675-2.0347.32064315-.6449.261957-1.2215.66919-1.6853 1.190357-.9097 1.27287-1.3484 2.82536-1.2403 4.389v1.29h-5.2228v-.825c-.0275-.6164.0564-1.23272.2477-1.819.0964-.21037.2578-.38385.4601-.49466.2023-.1108.4348-.153.6628-.12034.3917.00283.7823.042 1.1667.117.4078.07933.8057.16767 1.1936.265l.7877-3.9c-.537-.134067-1.0808-.238556-1.6292-.3130002-.5324-.0682437-1.0686-.1016474-1.6053-.09999995-.8944-.03009535-1.7847.13467215-2.6099.48300015-.6575.295779-1.2337.74774-1.6789 1.317-.4321.56798-.7402 1.22119-.9041 1.917-.1797.7593-.2682 1.53752-.2636 2.318v1.15h-2.0967v3.87303h2.0977v10.563h4.1724v-10.563h5.2228v10.559h4.1725v-10.559h2.6318z" fill="#161e26"/></g></svg>